<?xml version="1.0" encoding="utf-8"?>
<!-- Generator: Adobe Illustrator 29.8.7, SVG Export Plug-In . SVG Version: 9.03 Build 0)  -->
<svg version="1.1" id="Capa_1" xmlns="http://www.w3.org/2000/svg" xmlns:xlink="http://www.w3.org/1999/xlink" x="0px" y="0px"
	 viewBox="0 0 341 113" style="enable-background:new 0 0 341 113;" xml:space="preserve">
<style type="text/css">
	.st0{clip-path:url(#SVGID_00000136369356679874008190000007704918904957493130_);fill:#1C252D;}
</style>
<g>
	<defs>
		<rect id="SVGID_1_" x="-26" y="-39.5" width="393.961" height="189.5"/>
	</defs>
	<clipPath id="SVGID_00000037662031196121130500000013074485109008131213_">
		<use xlink:href="#SVGID_1_"  style="overflow:visible;"/>
	</clipPath>
	<path style="clip-path:url(#SVGID_00000037662031196121130500000013074485109008131213_);fill:#1C252D;" d="M103.875,25.747
		L71.578,7.1c-3.878-2.239-8.657-2.239-12.536,0L26.746,25.747c-3.879,2.239-6.268,6.378-6.268,10.856v37.293
		c0,4.479,2.389,8.617,6.268,10.857l6.267,3.619l26.029,15.027c3.879,2.24,8.658,2.24,12.536,0l26.029-15.027l6.268-3.619
		c3.878-2.24,6.268-6.378,6.268-10.857V36.603C110.143,32.125,107.753,27.986,103.875,25.747 M33.013,36.603l15.685-9.055v30.055
		l-15.685,9.056V36.603z M77.257,85.646L65.31,92.543l-12.446-7.186V69.673l0.002-0.001v-1.889V55.197V25.141l12.444-7.184
		l12.038,6.95v30.055l-0.092-0.053v14.476h0.001V85.646z M97.607,66.659l-16.091-9.29V27.313l16.091,9.29V66.659z"/>
	<polygon style="clip-path:url(#SVGID_00000037662031196121130500000013074485109008131213_);fill:#1C252D;" points="
		143.149,39.078 143.149,57.627 135.715,57.627 135.715,39.078 128.931,39.078 128.931,33.809 149.934,33.809 149.934,39.078 	"/>
	<path style="clip-path:url(#SVGID_00000037662031196121130500000013074485109008131213_);fill:#1C252D;" d="M170.322,57.627
		l-1.625-4.763h-6.459l-1.732,4.763h-7.398l9.31-23.817h6.352l9.31,23.817H170.322z M165.63,42.543l-2.057,6.279h3.79L165.63,42.543
		z"/>
	<polygon style="clip-path:url(#SVGID_00000037662031196121130500000013074485109008131213_);fill:#1C252D;" points="
		199.731,57.627 193.813,48.1 193.813,57.627 186.379,57.627 186.379,33.81 193.813,33.81 193.813,42.976 199.587,33.81 
		207.995,33.81 200.273,45.43 208.789,57.627 	"/>
	<polygon style="clip-path:url(#SVGID_00000037662031196121130500000013074485109008131213_);fill:#1C252D;" points="
		216.727,57.627 216.727,33.81 234.121,33.81 234.121,39.078 224.161,39.078 224.161,43.048 232.316,43.048 232.316,47.956 
		224.161,47.956 224.161,52.358 234.59,52.358 234.59,57.627 	"/>
	<path style="clip-path:url(#SVGID_00000037662031196121130500000013074485109008131213_);fill:#1C252D;" d="M255.014,58.276
		c-8.769,0-13.388-5.918-13.388-12.558c0-6.712,4.546-12.522,13.388-12.522c8.805,0,13.352,6.171,13.352,12.522
		C268.366,52.105,263.747,58.276,255.014,58.276 M255.014,39.042c-3.103,0-5.485,2.201-5.485,6.676c0,4.511,2.382,6.712,5.485,6.712
		c3.067,0,5.449-2.201,5.449-6.712C260.463,41.243,258.081,39.042,255.014,39.042"/>
	<polygon style="clip-path:url(#SVGID_00000037662031196121130500000013074485109008131213_);fill:#1C252D;" points="
		284.857,39.078 284.857,43.445 293.229,43.445 293.229,48.352 284.857,48.352 284.857,57.627 277.423,57.627 277.423,33.809 
		295.069,33.809 295.069,39.078 	"/>
	<polygon style="clip-path:url(#SVGID_00000037662031196121130500000013074485109008131213_);fill:#1C252D;" points="
		311.271,39.078 311.271,43.445 319.643,43.445 319.643,48.352 311.271,48.352 311.271,57.627 303.837,57.627 303.837,33.809 
		321.483,33.809 321.483,39.078 	"/>
	<polygon style="clip-path:url(#SVGID_00000037662031196121130500000013074485109008131213_);fill:#1C252D;" points="
		167.513,67.392 170.023,67.392 172.494,73.877 174.991,67.392 177.475,67.392 177.475,76.648 175.906,76.648 175.906,68.961 
		175.88,68.961 173.07,76.648 171.918,76.648 169.108,68.961 169.082,68.961 169.082,76.648 167.513,76.648 	"/>
	<path style="clip-path:url(#SVGID_00000037662031196121130500000013074485109008131213_);fill:#1C252D;" d="M185.188,67.392h1.425
		l3.988,9.256h-1.883l-0.863-2.118h-4.014l-0.836,2.118h-1.844L185.188,67.392z M187.28,73.118l-1.425-3.765l-1.451,3.765H187.28z"
		/>
	
		<rect x="194.209" y="67.392" style="clip-path:url(#SVGID_00000037662031196121130500000013074485109008131213_);fill:#1C252D;" width="1.647" height="9.256"/>
	<polygon style="clip-path:url(#SVGID_00000037662031196121130500000013074485109008131213_);fill:#1C252D;" points="
		200.498,67.392 202.681,67.392 207.165,74.269 207.192,74.269 207.192,67.392 208.839,67.392 208.839,76.648 206.747,76.648 
		202.171,69.549 202.145,69.549 202.145,76.648 200.498,76.648 	"/>
	<path style="clip-path:url(#SVGID_00000037662031196121130500000013074485109008131213_);fill:#1C252D;" d="M226.358,69.562
		c-0.34-0.366-0.669-0.61-0.987-0.732c-0.318-0.122-0.639-0.183-0.961-0.183c-0.48,0-0.913,0.085-1.301,0.255s-0.722,0.405-1,0.706
		c-0.279,0.301-0.495,0.651-0.647,1.052c-0.153,0.401-0.229,0.832-0.229,1.295c0,0.496,0.076,0.954,0.229,1.372
		c0.152,0.418,0.368,0.78,0.647,1.085c0.278,0.306,0.612,0.545,1,0.719c0.388,0.175,0.821,0.262,1.301,0.262
		c0.375,0,0.738-0.089,1.091-0.268c0.354-0.178,0.682-0.464,0.988-0.856l1.359,0.967c-0.418,0.575-0.928,0.994-1.529,1.255
		c-0.602,0.262-1.243,0.392-1.923,0.392c-0.714,0-1.37-0.115-1.967-0.346c-0.597-0.231-1.111-0.558-1.542-0.981
		c-0.432-0.422-0.77-0.93-1.014-1.523c-0.244-0.592-0.366-1.25-0.366-1.974c0-0.741,0.122-1.414,0.366-2.02
		c0.244-0.605,0.582-1.122,1.014-1.549c0.431-0.427,0.945-0.756,1.542-0.987c0.597-0.231,1.253-0.347,1.967-0.347
		c0.628,0,1.21,0.111,1.746,0.334c0.536,0.222,1.035,0.599,1.497,1.131L226.358,69.562z"/>
	<polygon style="clip-path:url(#SVGID_00000037662031196121130500000013074485109008131213_);fill:#1C252D;" points="
		231.574,67.392 237.705,67.392 237.705,68.882 233.221,68.882 233.221,71.157 237.47,71.157 237.47,72.648 233.221,72.648 
		233.221,75.158 237.941,75.158 237.941,76.648 231.574,76.648 	"/>
	<polygon style="clip-path:url(#SVGID_00000037662031196121130500000013074485109008131213_);fill:#1C252D;" points="
		242.177,67.392 244.36,67.392 248.844,74.269 248.871,74.269 248.871,67.392 250.518,67.392 250.518,76.648 248.426,76.648 
		243.85,69.549 243.824,69.549 243.824,76.648 242.177,76.648 	"/>
	<polygon style="clip-path:url(#SVGID_00000037662031196121130500000013074485109008131213_);fill:#1C252D;" points="
		257.094,68.882 254.257,68.882 254.257,67.392 261.577,67.392 261.577,68.882 258.74,68.882 258.74,76.648 257.094,76.648 	"/>
	<polygon style="clip-path:url(#SVGID_00000037662031196121130500000013074485109008131213_);fill:#1C252D;" points="
		265.317,67.392 271.448,67.392 271.448,68.882 266.964,68.882 266.964,71.157 271.213,71.157 271.213,72.648 266.964,72.648 
		266.964,75.158 271.684,75.158 271.684,76.648 265.317,76.648 	"/>
	<path style="clip-path:url(#SVGID_00000037662031196121130500000013074485109008131213_);fill:#1C252D;" d="M275.921,67.392h3.216
		c0.444,0,0.873,0.041,1.288,0.124c0.413,0.083,0.781,0.225,1.104,0.425c0.322,0.201,0.579,0.471,0.771,0.811
		c0.192,0.339,0.288,0.771,0.288,1.294c0,0.671-0.185,1.233-0.556,1.686c-0.371,0.454-0.9,0.728-1.588,0.824l2.458,4.092h-1.987
		l-2.145-3.922h-1.203v3.922h-1.646V67.392z M278.849,71.314c0.235,0,0.47-0.011,0.706-0.032c0.235-0.022,0.451-0.074,0.647-0.158
		c0.196-0.082,0.355-0.209,0.477-0.379c0.122-0.17,0.183-0.407,0.183-0.712c0-0.27-0.056-0.488-0.169-0.654
		c-0.114-0.165-0.262-0.289-0.445-0.372c-0.183-0.083-0.386-0.138-0.608-0.164c-0.222-0.026-0.438-0.039-0.647-0.039h-1.426v2.51
		H278.849z"/>
</g>
</svg>
