<?xml version="1.0" encoding="utf-8"?>
<!-- Generator: Adobe Illustrator 29.8.7, SVG Export Plug-In . SVG Version: 9.03 Build 0)  -->
<svg version="1.1" id="Capa_1" xmlns="http://www.w3.org/2000/svg" xmlns:xlink="http://www.w3.org/1999/xlink" x="0px" y="0px"
	 viewBox="0 0 286.318 286.318" style="enable-background:new 0 0 286.318 286.318;" xml:space="preserve">
<style type="text/css">
	.st0{clip-path:url(#SVGID_00000091723783151737731940000011467567981359223460_);fill:#1C252D;}
</style>
<g>
	<defs>
		<rect id="SVGID_1_" width="286.318" height="286.318"/>
	</defs>
	<clipPath id="SVGID_00000003101882799377421270000015309170972195360663_">
		<use xlink:href="#SVGID_1_"  style="overflow:visible;"/>
	</clipPath>
	<path style="clip-path:url(#SVGID_00000003101882799377421270000015309170972195360663_);fill:#1C252D;" d="M209.991,92.03
		l-55.97-32.314c-6.722-3.881-15.003-3.881-21.725,0L76.326,92.03c-6.721,3.881-10.862,11.053-10.862,18.814v64.629
		c0,7.762,4.141,14.934,10.862,18.815l10.862,6.271l45.108,26.043c6.722,3.881,15.003,3.881,21.725,0l45.108-26.043l10.862-6.271
		c6.722-3.881,10.863-11.053,10.863-18.815v-64.629C220.854,103.083,216.713,95.911,209.991,92.03 M87.188,110.844l27.182-15.693
		v52.086l-27.182,15.694V110.844z M163.862,195.835l-20.703,11.953l-21.569-12.453v-27.18l0.004-0.002v-3.274v-21.812V90.981
		l21.565-12.451l20.861,12.044v52.086l-0.159-0.091v25.085l0.001,0.001V195.835z M199.129,162.931l-27.886-16.1V94.745
		l27.886,16.099V162.931z"/>
</g>
</svg>
