<?xml version="1.0" encoding="utf-8"?>
<!-- Generator: Adobe Illustrator 29.8.7, SVG Export Plug-In . SVG Version: 9.03 Build 0)  -->
<svg version="1.1" id="Capa_1" xmlns="http://www.w3.org/2000/svg" xmlns:xlink="http://www.w3.org/1999/xlink" x="0px" y="0px"
	 viewBox="0 0 214 186" style="enable-background:new 0 0 214 186;" xml:space="preserve">
<style type="text/css">
	.st0{display:none;fill:#1C252D;}
	.st1{clip-path:url(#SVGID_00000045607445452063068590000009707330575032088712_);fill:#FFFFFF;}
</style>
<rect x="-34.951" y="-50.27" class="st0" width="286.221" height="286.221"/>
<g>
	<defs>
		<rect id="SVGID_1_" x="-35" y="-50.318" width="286.318" height="286.318"/>
	</defs>
	<clipPath id="SVGID_00000134243361796070055410000009196530576088036736_">
		<use xlink:href="#SVGID_1_"  style="overflow:visible;"/>
	</clipPath>
	<path style="clip-path:url(#SVGID_00000134243361796070055410000009196530576088036736_);fill:#FFFFFF;" d="M21.57,139.406v19.573
		h-7.844v-19.573H6.567v-5.56H28.73v5.56H21.57z M50.244,158.979l-1.714-5.027h-6.816l-1.828,5.027H32.08l9.824-25.133h6.702
		l9.824,25.133H50.244z M45.293,143.061l-2.17,6.626h3.998L45.293,143.061z M81.276,158.979l-6.245-10.053v10.053h-7.844v-25.133
		h7.844v9.673l6.093-9.673h8.872l-8.148,12.262l8.986,12.871H81.276z M99.211,158.979v-25.133h18.354v5.56h-10.51v4.189h8.606v5.178
		h-8.606v4.646h11.005v5.56H99.211z M139.611,159.664c-9.253,0-14.127-6.245-14.127-13.252c0-7.082,4.798-13.213,14.127-13.213
		c9.292,0,14.09,6.512,14.09,13.213C153.701,153.152,148.827,159.664,139.611,159.664 M139.611,139.368
		c-3.274,0-5.788,2.323-5.788,7.044c0,4.76,2.514,7.083,5.788,7.083c3.237,0,5.75-2.323,5.75-7.083
		C145.361,141.691,142.848,139.368,139.611,139.368 M171.102,139.406v4.608h8.834v5.178h-8.834v9.787h-7.844v-25.133h18.62v5.56
		H171.102z M198.974,139.406v4.608h8.834v5.178h-8.834v9.787h-7.844v-25.133h18.62v5.56H198.974z M47.279,168.769h2.649l2.607,6.843
		l2.635-6.843h2.621v9.768h-1.655v-8.112h-0.028l-2.966,8.112h-1.214l-2.966-8.112h-0.028v8.112h-1.655V168.769z M65.93,168.769
		h1.505l4.207,9.768h-1.987l-0.91-2.235H64.51l-0.883,2.235h-1.945L65.93,168.769z M68.138,174.812l-1.503-3.973l-1.532,3.973
		H68.138z M75.449,168.769h1.738v9.767h-1.738V168.769z M82.086,168.769h2.303l4.732,7.257h0.028v-7.257h1.738v9.768H88.68
		l-4.829-7.491h-0.028v7.491h-1.737V168.769z M109.373,171.06c-0.359-0.387-0.706-0.644-1.042-0.773
		c-0.335-0.129-0.674-0.193-1.014-0.193c-0.506,0-0.963,0.089-1.372,0.269c-0.41,0.179-0.762,0.427-1.056,0.745
		c-0.294,0.317-0.522,0.687-0.682,1.11c-0.162,0.423-0.242,0.879-0.242,1.366c0,0.524,0.08,1.007,0.242,1.449
		c0.16,0.441,0.388,0.823,0.682,1.145c0.294,0.322,0.646,0.575,1.056,0.759c0.409,0.184,0.866,0.275,1.372,0.275
		c0.396,0,0.78-0.094,1.152-0.282c0.373-0.189,0.72-0.49,1.042-0.904l1.435,1.021c-0.442,0.607-0.98,1.048-1.614,1.324
		c-0.635,0.276-1.311,0.414-2.029,0.414c-0.753,0-1.446-0.122-2.076-0.365c-0.63-0.244-1.172-0.589-1.627-1.035
		c-0.456-0.446-0.812-0.982-1.07-1.608c-0.257-0.625-0.386-1.319-0.386-2.083c0-0.781,0.129-1.492,0.386-2.131
		c0.258-0.639,0.614-1.184,1.07-1.635c0.455-0.45,0.997-0.798,1.627-1.041c0.63-0.244,1.323-0.366,2.076-0.366
		c0.662,0,1.277,0.117,1.842,0.352c0.566,0.235,1.092,0.632,1.58,1.193L109.373,171.06z M114.878,168.769h6.469v1.573h-4.732v2.401
		h4.484v1.572h-4.484v2.649h4.981v1.573h-6.718V168.769z M126.066,168.769h2.303l4.732,7.257h0.028v-7.257h1.739v9.768h-2.208
		l-4.828-7.491h-0.028v7.491h-1.738V168.769z M141.806,170.342h-2.994v-1.573h7.726v1.573h-2.994v8.195h-1.738V170.342z
		 M150.484,168.769h6.469v1.573h-4.732v2.401h4.484v1.572h-4.484v2.649h4.981v1.573h-6.718V168.769z M161.672,168.769h3.393
		c0.47,0,0.922,0.044,1.359,0.132c0.437,0.087,0.825,0.236,1.166,0.448c0.34,0.212,0.611,0.497,0.814,0.855
		c0.202,0.359,0.303,0.814,0.303,1.366c0,0.708-0.195,1.302-0.586,1.78c-0.391,0.478-0.95,0.768-1.676,0.869l2.594,4.318h-2.098
		l-2.262-4.139h-1.27v4.139h-1.737V168.769z M164.762,172.908c0.248,0,0.496-0.011,0.745-0.034c0.248-0.023,0.475-0.078,0.682-0.166
		c0.207-0.087,0.375-0.221,0.504-0.4s0.193-0.43,0.193-0.752c0-0.285-0.059-0.515-0.179-0.689c-0.12-0.175-0.276-0.306-0.469-0.394
		c-0.193-0.087-0.407-0.145-0.642-0.172c-0.234-0.028-0.461-0.042-0.682-0.042h-1.505v2.649H164.762z M149.739,28.813L114.917,8.708
		c-4.182-2.414-9.334-2.414-13.516,0L66.579,28.813c-4.182,2.414-6.759,6.876-6.759,11.705v40.209c0,4.829,2.577,9.291,6.759,11.706
		l6.758,3.901l28.064,16.203c4.182,2.415,9.334,2.415,13.516,0l28.064-16.203l6.758-3.901c4.182-2.415,6.758-6.877,6.758-11.706
		V40.518C156.497,35.689,153.921,31.227,149.739,28.813 M73.337,40.518l16.911-9.764V63.16l-16.911,9.764V40.518z M121.04,93.395
		l-12.881,7.437L94.74,93.084v-16.91l0.002-0.001v-2.037v-13.57V28.16l13.417-7.747l12.979,7.494v32.406l-0.099-0.057v15.607h0.001
		V93.395z M142.981,72.924l-17.349-10.017V30.502l17.349,10.016V72.924z"/>
</g>
</svg>
