<?xml version="1.0" encoding="utf-8"?>
<!-- Generator: Adobe Illustrator 29.8.7, SVG Export Plug-In . SVG Version: 9.03 Build 0)  -->
<svg version="1.1" id="Capa_1" xmlns="http://www.w3.org/2000/svg" xmlns:xlink="http://www.w3.org/1999/xlink" x="0px" y="0px"
	 viewBox="0 0 326 113" style="enable-background:new 0 0 326 113;" xml:space="preserve">
<style type="text/css">
	.st0{fill:#1C252D;}
	.st1{clip-path:url(#SVGID_00000046326697285503990510000009923118945133662128_);fill:#FFFFFF;}
</style>
<rect x="-34" y="-36.5" class="st0" width="393.961" height="189.5"/>
<g>
	<defs>
		<rect id="SVGID_1_" x="-34" y="-36.5" width="393.961" height="189.5"/>
	</defs>
	<clipPath id="SVGID_00000080179037784562704060000011888403914087781252_">
		<use xlink:href="#SVGID_1_"  style="overflow:visible;"/>
	</clipPath>
	<path style="clip-path:url(#SVGID_00000080179037784562704060000011888403914087781252_);fill:#FFFFFF;" d="M95.875,28.747
		L63.578,10.1c-3.878-2.239-8.657-2.239-12.536,0L18.746,28.747c-3.879,2.239-6.268,6.378-6.268,10.856v37.293
		c0,4.479,2.389,8.617,6.268,10.857l6.267,3.619l26.029,15.027c3.879,2.24,8.658,2.24,12.536,0l26.029-15.027l6.268-3.619
		c3.878-2.24,6.268-6.378,6.268-10.857V39.603C102.143,35.125,99.753,30.986,95.875,28.747 M25.013,39.603l15.685-9.055v30.055
		l-15.685,9.056V39.603z M69.257,88.646L57.31,95.543l-12.446-7.186V72.673l0.002-0.001v-1.889V58.197V28.141l12.444-7.184
		l12.038,6.95v30.055l-0.092-0.053v14.476h0.001V88.646z M89.607,69.659l-16.091-9.29V30.313l16.091,9.29V69.659z"/>
	<polygon style="clip-path:url(#SVGID_00000080179037784562704060000011888403914087781252_);fill:#FFFFFF;" points="
		135.149,42.078 135.149,60.627 127.715,60.627 127.715,42.078 120.931,42.078 120.931,36.809 141.934,36.809 141.934,42.078 	"/>
	<path style="clip-path:url(#SVGID_00000080179037784562704060000011888403914087781252_);fill:#FFFFFF;" d="M162.322,60.627
		l-1.625-4.763h-6.459l-1.732,4.763h-7.398l9.31-23.817h6.352l9.31,23.817H162.322z M157.63,45.543l-2.057,6.279h3.79L157.63,45.543
		z"/>
	<polygon style="clip-path:url(#SVGID_00000080179037784562704060000011888403914087781252_);fill:#FFFFFF;" points="
		191.731,60.627 185.813,51.1 185.813,60.627 178.379,60.627 178.379,36.81 185.813,36.81 185.813,45.976 191.587,36.81 
		199.995,36.81 192.273,48.43 200.789,60.627 	"/>
	<polygon style="clip-path:url(#SVGID_00000080179037784562704060000011888403914087781252_);fill:#FFFFFF;" points="
		208.727,60.627 208.727,36.81 226.121,36.81 226.121,42.078 216.161,42.078 216.161,46.048 224.316,46.048 224.316,50.956 
		216.161,50.956 216.161,55.358 226.59,55.358 226.59,60.627 	"/>
	<path style="clip-path:url(#SVGID_00000080179037784562704060000011888403914087781252_);fill:#FFFFFF;" d="M247.014,61.276
		c-8.769,0-13.388-5.918-13.388-12.558c0-6.712,4.546-12.522,13.388-12.522c8.805,0,13.352,6.171,13.352,12.522
		C260.366,55.105,255.747,61.276,247.014,61.276 M247.014,42.042c-3.103,0-5.485,2.201-5.485,6.676c0,4.511,2.382,6.712,5.485,6.712
		c3.067,0,5.449-2.201,5.449-6.712C252.463,44.243,250.081,42.042,247.014,42.042"/>
	<polygon style="clip-path:url(#SVGID_00000080179037784562704060000011888403914087781252_);fill:#FFFFFF;" points="
		276.857,42.078 276.857,46.445 285.229,46.445 285.229,51.352 276.857,51.352 276.857,60.627 269.423,60.627 269.423,36.809 
		287.069,36.809 287.069,42.078 	"/>
	<polygon style="clip-path:url(#SVGID_00000080179037784562704060000011888403914087781252_);fill:#FFFFFF;" points="
		303.271,42.078 303.271,46.445 311.643,46.445 311.643,51.352 303.271,51.352 303.271,60.627 295.837,60.627 295.837,36.809 
		313.483,36.809 313.483,42.078 	"/>
	<polygon style="clip-path:url(#SVGID_00000080179037784562704060000011888403914087781252_);fill:#FFFFFF;" points="
		159.513,70.392 162.023,70.392 164.494,76.877 166.991,70.392 169.475,70.392 169.475,79.648 167.906,79.648 167.906,71.961 
		167.88,71.961 165.07,79.648 163.918,79.648 161.108,71.961 161.082,71.961 161.082,79.648 159.513,79.648 	"/>
	<path style="clip-path:url(#SVGID_00000080179037784562704060000011888403914087781252_);fill:#FFFFFF;" d="M177.188,70.392h1.425
		l3.988,9.256h-1.883l-0.863-2.118h-4.014l-0.836,2.118h-1.844L177.188,70.392z M179.28,76.118l-1.425-3.765l-1.451,3.765H179.28z"
		/>
	
		<rect x="186.209" y="70.392" style="clip-path:url(#SVGID_00000080179037784562704060000011888403914087781252_);fill:#FFFFFF;" width="1.647" height="9.256"/>
	<polygon style="clip-path:url(#SVGID_00000080179037784562704060000011888403914087781252_);fill:#FFFFFF;" points="
		192.498,70.392 194.681,70.392 199.165,77.269 199.192,77.269 199.192,70.392 200.839,70.392 200.839,79.648 198.747,79.648 
		194.171,72.549 194.145,72.549 194.145,79.648 192.498,79.648 	"/>
	<path style="clip-path:url(#SVGID_00000080179037784562704060000011888403914087781252_);fill:#FFFFFF;" d="M218.358,72.562
		c-0.34-0.366-0.669-0.61-0.987-0.732c-0.318-0.122-0.639-0.183-0.961-0.183c-0.48,0-0.913,0.085-1.301,0.255s-0.722,0.405-1,0.706
		c-0.279,0.301-0.495,0.651-0.647,1.052c-0.153,0.401-0.229,0.832-0.229,1.295c0,0.496,0.076,0.954,0.229,1.372
		c0.152,0.418,0.368,0.78,0.647,1.085c0.278,0.306,0.612,0.545,1,0.719c0.388,0.175,0.821,0.262,1.301,0.262
		c0.375,0,0.738-0.089,1.091-0.268c0.354-0.178,0.682-0.464,0.988-0.856l1.359,0.967c-0.418,0.575-0.928,0.994-1.529,1.255
		c-0.602,0.262-1.243,0.392-1.923,0.392c-0.714,0-1.37-0.115-1.967-0.346c-0.597-0.231-1.111-0.558-1.542-0.981
		c-0.432-0.422-0.77-0.93-1.014-1.523c-0.244-0.592-0.366-1.25-0.366-1.974c0-0.741,0.122-1.414,0.366-2.02
		c0.244-0.605,0.582-1.122,1.014-1.549c0.431-0.427,0.945-0.756,1.542-0.987c0.597-0.231,1.253-0.347,1.967-0.347
		c0.628,0,1.21,0.111,1.746,0.334c0.536,0.222,1.035,0.599,1.497,1.131L218.358,72.562z"/>
	<polygon style="clip-path:url(#SVGID_00000080179037784562704060000011888403914087781252_);fill:#FFFFFF;" points="
		223.574,70.392 229.705,70.392 229.705,71.882 225.221,71.882 225.221,74.157 229.47,74.157 229.47,75.648 225.221,75.648 
		225.221,78.158 229.941,78.158 229.941,79.648 223.574,79.648 	"/>
	<polygon style="clip-path:url(#SVGID_00000080179037784562704060000011888403914087781252_);fill:#FFFFFF;" points="
		234.177,70.392 236.36,70.392 240.844,77.269 240.871,77.269 240.871,70.392 242.518,70.392 242.518,79.648 240.426,79.648 
		235.85,72.549 235.824,72.549 235.824,79.648 234.177,79.648 	"/>
	<polygon style="clip-path:url(#SVGID_00000080179037784562704060000011888403914087781252_);fill:#FFFFFF;" points="
		249.094,71.882 246.257,71.882 246.257,70.392 253.577,70.392 253.577,71.882 250.74,71.882 250.74,79.648 249.094,79.648 	"/>
	<polygon style="clip-path:url(#SVGID_00000080179037784562704060000011888403914087781252_);fill:#FFFFFF;" points="
		257.317,70.392 263.448,70.392 263.448,71.882 258.964,71.882 258.964,74.157 263.213,74.157 263.213,75.648 258.964,75.648 
		258.964,78.158 263.684,78.158 263.684,79.648 257.317,79.648 	"/>
	<path style="clip-path:url(#SVGID_00000080179037784562704060000011888403914087781252_);fill:#FFFFFF;" d="M267.921,70.392h3.216
		c0.444,0,0.873,0.041,1.288,0.124c0.413,0.083,0.781,0.225,1.104,0.425c0.322,0.201,0.579,0.471,0.771,0.811
		c0.192,0.339,0.288,0.771,0.288,1.294c0,0.671-0.185,1.233-0.556,1.686c-0.371,0.454-0.9,0.728-1.588,0.824l2.458,4.092h-1.987
		l-2.145-3.922h-1.203v3.922h-1.646V70.392z M270.849,74.314c0.235,0,0.47-0.011,0.706-0.032c0.235-0.022,0.451-0.074,0.647-0.158
		c0.196-0.082,0.355-0.209,0.477-0.379c0.122-0.17,0.183-0.407,0.183-0.712c0-0.27-0.056-0.488-0.169-0.654
		c-0.114-0.165-0.262-0.289-0.445-0.372c-0.183-0.083-0.386-0.138-0.608-0.164c-0.222-0.026-0.438-0.039-0.647-0.039h-1.426v2.51
		H270.849z"/>
</g>
</svg>
