<?xml version="1.0" encoding="UTF-8"?>
<svg id="Capa_1" xmlns="http://www.w3.org/2000/svg" version="1.1" viewBox="0 0 70.9 56.3">
  <!-- Generator: Adobe Illustrator 29.8.5, SVG Export Plug-In . SVG Version: 2.1.1 Build 2)  -->
  <defs>
    <style>
      .st0 {
        fill: #fff;
      }

      .st1 {
        fill: #93f1c9;
      }
    </style>
  </defs>
  <path class="st1" d="M70.8,3.3c-.1-1.7-1.5-3.1-3.2-3.2-15-.9-27.1,3.8-32.3,12.4-3.4,5.6-3.5,12.4-.4,18.9-1.5,1.9-2.7,4.1-3.5,6.5l-3.6-3.6c2-4.7,1.8-9.6-.7-13.7-3.9-6.5-12.9-10-24-9.3-1.7.1-3.1,1.5-3.2,3.2-.6,11.1,2.8,20,9.3,24,2.2,1.3,4.7,2.1,7.3,2,2.2,0,4.4-.5,6.4-1.4l7.3,7.3v6.5c0,1.9,1.5,3.4,3.4,3.4s3.4-1.5,3.4-3.4v-8.3c0-3,.9-6,2.7-8.4,2.8,1.3,5.9,2,9,2.1,3.4,0,6.7-.9,9.5-2.7,8.7-5.2,13.3-17.3,12.4-32.3ZM12.9,32.7c-3.7-2.3-6-7.7-6.1-14.7,6.9.2,12.4,2.4,14.7,6.1.9,1.4,1.2,3.1,1,4.8l-3.2-3.2c-1.3-1.3-3.5-1.3-4.8,0-1.3,1.3-1.3,3.5,0,4.8l3.2,3.2c-1.7.2-3.3-.2-4.8-1ZM54.9,29.8c-3,1.8-6.5,2.2-10.1,1.1l10.5-10.5c1.3-1.3,1.3-3.5,0-4.8s-3.5-1.3-4.8,0l-10.5,10.5c-1.1-3.6-.7-7.1,1.1-10.1,3.6-5.9,12-9.3,22.9-9.3h.2c0,11-3.3,19.5-9.3,23.1Z"/>
  <g>
    <path class="st0" d="M90.1,41.4V14.9h6.9v11.5h0c0-3.7.8-6.6,2.3-8.7,1.6-2.1,3.8-3.2,6.7-3.2h1.1v7.5h-2c-2,0-3.5.5-4.5,1.6-1.1,1.1-1.6,2.6-1.6,4.6v13.3h-8.7Z"/>
    <path class="st0" d="M122.8,42.4c-2.2,0-4.2-.4-6-1.2-1.7-.8-3.2-1.8-4.4-3.1-1.2-1.3-2.1-2.8-2.7-4.4-.6-1.6-.9-3.3-.9-5v-1c0-1.8.3-3.5.9-5.2.6-1.6,1.5-3.1,2.7-4.4,1.2-1.3,2.6-2.3,4.3-3.1,1.7-.8,3.6-1.1,5.8-1.1s5.3.6,7.3,1.9c2,1.3,3.5,3,4.6,5.1,1.1,2.1,1.6,4.4,1.6,6.8v2.8h-23.5v-4.7h18.4l-3,2.1c0-1.5-.2-2.8-.6-3.8-.4-1-1-1.8-1.8-2.4-.8-.5-1.8-.8-3-.8s-2.2.3-3,.8c-.8.5-1.5,1.3-1.9,2.4-.4,1.1-.7,2.4-.7,4.1s.2,2.7.6,3.8c.4,1.1,1.1,1.9,1.9,2.5.9.6,2,.9,3.4.9s2.2-.2,3-.6c.8-.4,1.3-1,1.7-1.7h8c-.4,1.8-1.1,3.4-2.3,4.8-1.1,1.4-2.6,2.5-4.3,3.3-1.7.8-3.8,1.2-6,1.2Z"/>
    <path class="st0" d="M140.5,51V14.9h6.9v11.4h-.8c0-2.6.6-4.8,1.6-6.6.9-1.8,2.2-3.2,3.9-4.2,1.6-.9,3.5-1.4,5.6-1.4s3.5.3,5,1c1.5.7,2.7,1.6,3.8,2.8,1.1,1.2,1.9,2.6,2.4,4.3.6,1.6.8,3.4.8,5.4v1.2c0,2-.3,3.8-.8,5.4-.5,1.7-1.3,3.1-2.3,4.3s-2.3,2.2-3.8,2.9c-1.5.7-3.2,1-5.1,1s-3.9-.4-5.4-1.2c-1.6-.8-2.8-2.1-3.7-3.7-.9-1.6-1.4-3.7-1.5-6.2l2.1,2.6v17.3h-8.7ZM155.1,35c1.2,0,2.2-.3,3.1-.9.9-.6,1.6-1.4,2.1-2.5.5-1.1.7-2.3.7-3.6s-.2-2.6-.7-3.6c-.5-1-1.2-1.8-2-2.4-.9-.6-1.9-.8-3.1-.8s-2,.2-3,.7c-.9.5-1.7,1.2-2.2,2.1-.6.9-.9,2.1-.9,3.4v1.6c0,1.2.3,2.3.9,3.2.6.9,1.4,1.6,2.3,2,.9.5,1.9.7,2.8.7Z"/>
    <path class="st0" d="M172,12.6v-6.3h11.7v6.3h-11.7ZM174.9,41.4V6.3h8.7v35.1h-8.7Z"/>
    <path class="st0" d="M197.8,42.1c-1.9,0-3.5-.3-5-1-1.4-.7-2.6-1.6-3.4-2.9-.8-1.3-1.2-2.8-1.2-4.5s.5-3.6,1.6-4.8c1.1-1.2,2.5-2.1,4.4-2.7,1.9-.6,4-.9,6.4-.9h5.1v4.5h-5.1c-1.2,0-2.1.3-2.7.9-.6.6-1,1.4-1,2.4s.3,1.7,1,2.3c.6.6,1.6.9,2.7.9s1.5-.1,2-.4c.6-.3,1.1-.7,1.5-1.4s.6-1.6.7-2.8l2,1.9c-.2,1.8-.6,3.4-1.3,4.6s-1.7,2.2-3,2.9c-1.3.7-2.8,1-4.7,1ZM206.2,41.4v-7.8h-1.4v-8.3c0-1.2-.3-2.1-.8-2.7-.6-.6-1.5-.9-2.8-.9s-1.5,0-2.7,0c-1.2,0-2.4,0-3.7.1-1.3,0-2.5.1-3.6.2v-7.3c.8,0,1.7-.1,2.7-.2,1.1,0,2.2-.1,3.3-.1,1.1,0,2.2,0,3.1,0,2.7,0,5,.4,6.9,1.2,1.9.8,3.4,2,4.4,3.6,1,1.6,1.5,3.6,1.5,6.1v16.1h-6.9Z"/>
    <path class="st0" d="M219,41.4V14.9h6.9v11.4h-.4c0-2.8.4-5,1.1-6.8.7-1.8,1.8-3.2,3.1-4.1,1.4-.9,3.1-1.3,5.1-1.3h.4c3,0,5.3,1,7,3,1.7,2,2.5,5.1,2.5,9.2v15.2h-8.7v-15.4c0-1.2-.4-2.2-1.1-3-.7-.8-1.7-1.2-3-1.2s-2.3.4-3,1.2c-.8.8-1.1,1.8-1.1,3.1v15.3h-8.7Z"/>
    <path class="st0" d="M247.5,21.2v-6.3h19.2v6.3h-19.2ZM263.1,41.8c-2.9,0-5.2-.4-6.9-1.1-1.7-.7-3-1.9-3.7-3.5-.8-1.6-1.2-3.8-1.2-6.6V7.9h8.1v22.9c0,1.2.3,2.1.9,2.7.6.6,1.5.9,2.7.9h3.7v7.3h-3.6Z"/>
    <path class="st0" d="M279,42.1c-1.9,0-3.5-.3-5-1-1.4-.7-2.6-1.6-3.4-2.9-.8-1.3-1.2-2.8-1.2-4.5s.5-3.6,1.6-4.8c1.1-1.2,2.5-2.1,4.4-2.7,1.9-.6,4-.9,6.4-.9h5.1v4.5h-5.1c-1.2,0-2.1.3-2.7.9-.6.6-1,1.4-1,2.4s.3,1.7,1,2.3c.6.6,1.6.9,2.7.9s1.5-.1,2-.4c.6-.3,1.1-.7,1.5-1.4s.6-1.6.7-2.8l2,1.9c-.2,1.8-.6,3.4-1.3,4.6s-1.7,2.2-3,2.9c-1.3.7-2.8,1-4.7,1ZM287.4,41.4v-7.8h-1.4v-8.3c0-1.2-.3-2.1-.8-2.7-.6-.6-1.5-.9-2.8-.9s-1.5,0-2.7,0c-1.2,0-2.4,0-3.7.1-1.3,0-2.5.1-3.6.2v-7.3c.8,0,1.7-.1,2.7-.2,1.1,0,2.2-.1,3.3-.1,1.1,0,2.2,0,3.1,0,2.7,0,5,.4,6.9,1.2,1.9.8,3.4,2,4.4,3.6,1,1.6,1.5,3.6,1.5,6.1v16.1h-6.9Z"/>
  </g>
</svg>